<svg
    viewBox="0 0 19.96435 13.618359"
    version="1.1"
    id="svg1"
    xmlns="http://www.w3.org/2000/svg">
  <g
      id="layer1"
      transform="translate(-111.48159,-22.096547)">
    <g
        id="g231"
        transform="matrix(1.2150993,0,0,1.2150993,-26.126777,-6.2176033)"
        style="stroke-width:0.822978">
      <path
          d="m 121.38261,23.301924 c -0.93663,0 -1.92771,0.68221 -2.09943,1.82521 l -0.44945,2.99155 -0.41668,2.77348 h 2.77813 l 0.48446,-3.22461 1.55108,3.22461 h 1.38338 a 0.29155917,0.33877609 47.147958 0 1 0.26742,0.31471 l -0.35682,2.37504 0.0339,0.0703 c 0.29037,0.60325 0.91914,0.85732 1.64939,0.85732 0.93662,0 1.92538,-0.66671 2.0971,-1.80971 l 1.37379,-9.14415 h -2.77812 l -0.9898,6.58823 -2.87887,-5.98516 c -0.29037,-0.60325 -0.90334,-0.8568 -1.64946,-0.8568 z"
          style="fill:#5a00c0;stroke-width:0.411489;stroke-linecap:square;" />
      <path
          d="m 118.54654,26.403184 0.22189,-1.47692 c 0.0774,-0.5155 0.30891,-0.95538 0.62596,-1.30121 h -4.63435 l -0.41738,2.77813 z"
          style="fill:#9800c0;stroke-width:0.411489;stroke-linecap:square;" />
      <path
          d="m 118.3194,28.319054 -3.92425,2.26291 c -0.66049,0.381 -1.01467,1.04742 -1.12438,1.77767 -0.14071,0.93663 0.39241,1.82573 1.53541,1.82573 h 2.63188 3.40652 3.10524 l 0.0472,-0.31419 0.37018,-2.46393 h -1.55598 -1.54926 -3.40652 -0.076 l 0.0832,-0.0481 z"
          style="fill:#9800c0;stroke-width:0.411489;stroke-linecap:square;" />
    </g>
  </g>
</svg>
